#!OML:ASF F:\VICON\USERDATA\INSTALL\rory3\rory3.ASF
:FULLY-SPECIFIED
:DEGREES
155
root -0.3313176412677724 17.575470258555406 61.311832288056024 1.6663777602677878 -1.7028665500017122 -2.1425126519237514
lfemur -18.48898344762751 -1.5930097121509694 -18.352009801271688
ltibia 35.51179371656373
lfoot 14.622655131976932 -14.24784736723593
ltoes -6.586675818653796
rfemur -16.050834013340996 7.931634815217343 27.49626834975124
rtibia 49.676002931272166
rfoot -7.591365459733534 -10.593152915055878
rtoes -0.6213926639989915
lowerback 12.231572037697672 0.05780298296480024 1.7951444767619749
upperback -0.6104971089352258 0.3975122874843363 1.7438092497414919
thorax -7.257917117959139 0.16749664942350206 1.207060739563497
lowerneck -16.612882826757094 -3.2416813629224155 -3.192041854612346
upperneck 19.30962084480376 -3.7770384109932946 2.7061383038824562
head 8.690631782365863 -1.8124146923890065 1.274937406368811
lclavicle -1.6734796184157573e-15 -3.590678275520078e-15
lhumerus -42.994908804682886 -6.227127219480374 89.26907217243642
lradius 74.36068965347025
lwrist 17.702144045124594
lhand -30.3824118084566 12.209767027077746
lfingers 7.125019999999999
lthumb -3.8598973832784376 42.19943700499016
rclavicle -1.6777872633151405e-15 -3.593707374284709e-15
rhumerus -37.99430072715566 -6.907999517835558 -84.91616565432078
rradius 56.084470034712965
rwrist 1.7724976612722063
rhand -17.94209797972842 28.76192203828466
rfingers 7.125019999999999
rthumb 7.4969010926029 -0.15278960657257631
156
root -0.35409733654212844 17.538837167142145 61.302429733188646 1.5890340068033046 -1.6707408261440562 -2.3419983385017873
lfemur -18.029372629750462 -1.6167247762572505 -18.34752351256752
ltibia 35.53231324423669
lfoot 15.211753853349537 -14.857395472307626
ltoes -4.997175841899357
rfemur -15.243045893228935 7.873119604866124 27.832209849133974
rtibia 49.865316742491906
rfoot -7.4478809633328 -10.743851427325879
rtoes -1.1812764711090153
lowerback 12.315563868760032 0.0788660968192893 1.954465408096604
upperback -0.6424623419038065 0.46140801270627124 1.7918072314067308
thorax -7.300253483154486 0.1947327948243715 1.1822418024108008
lowerneck -16.66313952648886 -3.25851805161361 -3.2397209668082043
upperneck 19.26441542894325 -3.8118287585167456 2.7155888556075842
head 8.688656711328418 -1.828625006826179 1.2715294496543337
lclavicle -1.6738540982088414e-15 -3.590944799652899e-15
lhumerus -43.703768871013246 -5.7879291688256735 89.15100636499301
lradius 73.3299422748822
lwrist 16.01755062419597
lhand -30.308825849033752 12.158971413470187
lfingers 7.125019999999999
lthumb -3.777255720017876 42.137009976567306
rclavicle -1.677944462595849e-15 -3.5938184132342295e-15
rhumerus -38.199090906555966 -7.173382249673102 -84.71109176055734
rradius 55.73755910130587
rwrist 2.0509558337261593
rhand -18.11048540525182 28.748898996860454
rfingers 7.125019999999999
rthumb 7.422027429125975 -0.12837954959130696
157
root -0.377863705517548 17.495606295801643 61.19559841246787 1.3493207942265235 -1.5611212249130586 -2.2242916775348647
lfemur -17.640532480878065 -1.7043643438568745 -18.624799749026256
ltibia 36.10845810755643
lfoot 15.699169966760154 -15.375225171039371
ltoes -3.922843668504206
rfemur -14.501396991354516 7.553415305593267 27.71762053147423
rtibia 50.397041204227676
rfoot -7.325831387438505 -10.950349037082084
rtoes -0.9375226573262645
lowerback 12.47586882380624 0.0914276372268022 1.8436145495745433
upperback -0.5791995607944869 0.4717279635669688 1.7847229351204077
thorax -7.347745307809306 0.2092818699121447 1.2781347797253604
lowerneck -16.634552042439843 -3.2495649049364967 -3.2752809898374835
upperneck 19.088317956378397 -3.775495776700886 2.698205272146369
head 8.611716124681168 -1.8090869991771135 1.2744160193713217
lclavicle -1.6733504599986327e-15 -3.5905906626005436e-15
lhumerus -44.34479209013486 -5.394669471785418 89.09350827271896
lradius 72.26314874485952
lwrist 16.35377001294558
lhand -30.38245050506663 12.093144273796922
lfingers 7.125019999999999
lthumb -3.784491385838045 42.12293199197543
rclavicle -1.676893731749878e-15 -3.593075413927332e-15
rhumerus -38.34152046500336 -7.434291172927229 -84.64418986729484
rradius 55.39491334386106
rwrist 2.123616599639015
rhand -18.152675677594903 28.7384899767303
rfingers 7.125019999999999
rthumb 7.363312131690086 -0.34940118511520485
158
root -0.41319262555873837 17.442737119605336 60.92664653701335 1.0796273598575516 -1.3882811491471407 -2.4512407104118674
lfemur -17.527922048447238 -1.7434302215990425 -18.537001920468896
ltibia 37.15993473498329
lfoot 15.746358241428593 -15.91319202949679
ltoes -2.613837695445584
rfemur -13.811008776959845 7.239456573492161 27.962846665086065
rtibia 51.12524769928535
rfoot -7.166354412885225 -11.295195597038195
rtoes 0.0019350039018268816
lowerback 12.777315500143212 0.08533970361531623 1.947542755370594
upperback -0.5255896113450712 0.5074354282615221 1.8725582342815545
thorax -7.5172510831005015 0.22926213552260377 1.3283906772550012
lowerneck -16.592674465537986 -3.264004496764069 -3.293965603027117
upperneck 19.031019953026465 -3.8010738130131667 2.655255808610545
head 8.581725702354472 -1.823427209742998 1.2465163525217207
lclavicle -1.6742575872432855e-15 -3.591229214836784e-15
lhumerus -44.965393353625 -5.157771278811973 89.03622387699144
lradius 71.19415823088862
lwrist 15.996557941346524
lhand -30.612736806066394 12.036372991942011
lfingers 7.125019999999999
lthumb -3.9682334079912307 42.02433563815563
rclavicle -1.6772068718550033e-15 -3.593296888911678e-15
rhumerus -38.48928281084336 -7.785359037786229 -84.58653884985856
rradius 55.033232961620904
rwrist 1.991660517055415
rhand -18.27474111056703 28.828892976695798
rfingers 7.125019999999999
rthumb 7.299196284770437 -0.22428120868876703
